<svg width="20" height="20" viewBox="0 0 20 20" fill="none" xmlns="http://www.w3.org/2000/svg">
<g clip-path="url(#clip0_2797_385)">
<path d="M17.3048 0.00012207H2.69504C1.20664 0.00012207 0 1.20671 0 2.69516V17.305C0 18.7934 1.20659 20 2.69504 20H9.90049L9.91277 12.8531H8.05601C7.81471 12.8531 7.61886 12.658 7.61793 12.4167L7.60903 10.113C7.6081 9.87037 7.80453 9.67321 8.04715 9.67321H9.90054V7.44721C9.90054 4.86396 11.4782 3.45737 13.7826 3.45737H15.6736C15.9155 3.45737 16.1117 3.65351 16.1117 3.89549V5.83801C16.1117 6.0799 15.9157 6.27599 15.6738 6.27614L14.5134 6.27668C13.2602 6.27668 13.0175 6.87219 13.0175 7.74614V9.67325H15.7713C16.0336 9.67325 16.2372 9.90237 16.2063 10.1629L15.9332 12.4667C15.9071 12.6871 15.7202 12.8532 15.4982 12.8532H13.0298L13.0175 20.0001H17.3049C18.7933 20.0001 19.9999 18.7935 19.9999 17.3051V2.69516C19.9998 1.20671 18.7932 0.00012207 17.3048 0.00012207Z" fill="#475993"/>
</g>
<defs>
<clipPath id="clip0_2797_385">
<rect width="20" height="20" fill="white"/>
</clipPath>
</defs>
</svg>
