<svg width="20" height="20" viewBox="0 0 20 20" fill="none" xmlns="http://www.w3.org/2000/svg">
<g clip-path="url(#clip0_2797_383)">
<path d="M10.0048 0.151642C5.89253 0.151642 4.68984 0.155884 4.45606 0.175277C3.61215 0.245427 3.08701 0.378302 2.51491 0.663141C2.07401 0.882074 1.7263 1.13585 1.38313 1.4916C0.758145 2.14037 0.379369 2.93853 0.242251 3.88729C0.175587 4.34788 0.156193 4.44182 0.152254 6.79447C0.150739 7.57869 0.152254 8.61078 0.152254 9.99513C0.152254 14.1041 0.1568 15.3056 0.176496 15.5389C0.244676 16.3601 0.37346 16.8767 0.646179 17.4419C1.16737 18.5237 2.1628 19.3358 3.33549 19.6388C3.74154 19.7433 4.19001 19.8009 4.76575 19.8282C5.00968 19.8388 7.49597 19.8463 9.98377 19.8463C12.4716 19.8463 14.9594 19.8433 15.1973 19.8312C15.8639 19.7998 16.251 19.7479 16.679 19.6373C17.8593 19.3327 18.8365 18.5328 19.3683 17.4358C19.6358 16.8843 19.7714 16.348 19.8327 15.5697C19.8461 15.4 19.8517 12.6944 19.8517 9.99256C19.8517 7.29021 19.8456 4.58969 19.8323 4.42C19.7701 3.62911 19.6345 3.09731 19.3585 2.53521C19.132 2.07507 18.8805 1.73144 18.5153 1.38009C17.8637 0.757684 17.0667 0.378908 16.1171 0.241942C15.6569 0.175429 15.5653 0.155733 13.2108 0.151642H10.0048Z" fill="url(#paint0_radial_2797_383)"/>
<path d="M10.0048 0.151642C5.89253 0.151642 4.68984 0.155884 4.45606 0.175277C3.61215 0.245427 3.08701 0.378302 2.51491 0.663141C2.07401 0.882074 1.7263 1.13585 1.38313 1.4916C0.758145 2.14037 0.379369 2.93853 0.242251 3.88729C0.175587 4.34788 0.156193 4.44182 0.152254 6.79447C0.150739 7.57869 0.152254 8.61078 0.152254 9.99513C0.152254 14.1041 0.1568 15.3056 0.176496 15.5389C0.244676 16.3601 0.37346 16.8767 0.646179 17.4419C1.16737 18.5237 2.1628 19.3358 3.33549 19.6388C3.74154 19.7433 4.19001 19.8009 4.76575 19.8282C5.00968 19.8388 7.49597 19.8463 9.98377 19.8463C12.4716 19.8463 14.9594 19.8433 15.1973 19.8312C15.8639 19.7998 16.251 19.7479 16.679 19.6373C17.8593 19.3327 18.8365 18.5328 19.3683 17.4358C19.6358 16.8843 19.7714 16.348 19.8327 15.5697C19.8461 15.4 19.8517 12.6944 19.8517 9.99256C19.8517 7.29021 19.8456 4.58969 19.8323 4.42C19.7701 3.62911 19.6345 3.09731 19.3585 2.53521C19.132 2.07507 18.8805 1.73144 18.5153 1.38009C17.8637 0.757684 17.0667 0.378908 16.1171 0.241942C15.6569 0.175429 15.5653 0.155733 13.2108 0.151642H10.0048Z" fill="url(#paint1_radial_2797_383)"/>
<path d="M10.0003 2.72733C8.02522 2.72733 7.77735 2.73596 7.00162 2.77126C6.2274 2.80672 5.69893 2.92929 5.23652 3.10913C4.7582 3.29488 4.35246 3.54336 3.94823 3.94774C3.54369 4.35197 3.29522 4.75772 3.10886 5.23589C2.92856 5.69845 2.80584 6.22707 2.77099 7.00098C2.73629 7.77672 2.7272 8.02474 2.7272 9.99983C2.7272 11.9749 2.73599 12.222 2.77114 12.9978C2.80675 13.772 2.92932 14.3005 3.10901 14.7629C3.29491 15.2412 3.54339 15.6469 3.94777 16.0512C4.35185 16.4557 4.7576 16.7048 5.23561 16.8905C5.69833 17.0704 6.22695 17.1929 7.00101 17.2284C7.77675 17.2637 8.02447 17.2723 9.99941 17.2723C11.9747 17.2723 12.2218 17.2637 12.9975 17.2284C13.7717 17.1929 14.3008 17.0704 14.7635 16.8905C15.2417 16.7048 15.6468 16.4557 16.0509 16.0512C16.4554 15.6469 16.7039 15.2412 16.8903 14.763C17.069 14.3005 17.1918 13.7718 17.2281 12.9979C17.263 12.2222 17.2721 11.9749 17.2721 9.99983C17.2721 8.02474 17.263 7.77687 17.2281 7.00113C17.1918 6.22692 17.069 5.69845 16.8903 5.23604C16.7039 4.75772 16.4554 4.35197 16.0509 3.94774C15.6464 3.54321 15.2418 3.29473 14.7631 3.10913C14.2994 2.92929 13.7707 2.80672 12.9964 2.77126C12.2207 2.73596 11.9737 2.72733 9.99804 2.72733H10.0003ZM9.34791 4.03789C9.54154 4.03759 9.7576 4.03789 10.0003 4.03789C11.9421 4.03789 12.1722 4.04486 12.939 4.07971C13.6481 4.11213 14.0329 4.23061 14.2893 4.33016C14.6287 4.46197 14.8706 4.61954 15.125 4.87408C15.3795 5.12862 15.5371 5.37103 15.6692 5.71042C15.7688 5.96647 15.8874 6.35131 15.9197 7.06038C15.9545 7.82702 15.9621 8.05731 15.9621 9.99817C15.9621 11.939 15.9545 12.1693 15.9197 12.936C15.8873 13.645 15.7688 14.0299 15.6692 14.2859C15.5374 14.6253 15.3795 14.867 15.125 15.1213C14.8705 15.3759 14.6288 15.5335 14.2893 15.6653C14.0332 15.7653 13.6481 15.8834 12.939 15.9159C12.1724 15.9507 11.9421 15.9583 10.0003 15.9583C8.0584 15.9583 7.82826 15.9507 7.06162 15.9159C6.35255 15.8831 5.96771 15.7647 5.7112 15.6651C5.37182 15.5333 5.1294 15.3757 4.87487 15.1212C4.62033 14.8667 4.46276 14.6248 4.33064 14.2853C4.2311 14.0293 4.11246 13.6444 4.08019 12.9353C4.04535 12.1687 4.03838 11.9384 4.03838 9.99635C4.03838 8.05428 4.04535 7.8252 4.08019 7.05856C4.11262 6.34949 4.2311 5.96465 4.33064 5.7083C4.46245 5.36891 4.62033 5.12649 4.87487 4.87196C5.1294 4.61742 5.37182 4.45985 5.7112 4.32773C5.96756 4.22773 6.35255 4.10956 7.06162 4.07698C7.73251 4.04668 7.9925 4.03759 9.34791 4.03607V4.03789ZM13.8823 5.24543C13.4005 5.24543 13.0096 5.63587 13.0096 6.11783C13.0096 6.59963 13.4005 6.99053 13.8823 6.99053C14.3641 6.99053 14.755 6.59963 14.755 6.11783C14.755 5.63602 14.3641 5.24543 13.8823 5.24543ZM10.0003 6.2651C7.9378 6.2651 6.26558 7.93732 6.26558 9.99983C6.26558 12.0623 7.9378 13.7338 10.0003 13.7338C12.0628 13.7338 13.7344 12.0623 13.7344 9.99983C13.7344 7.93732 12.0628 6.2651 10.0003 6.2651ZM10.0003 7.57566C11.3391 7.57566 12.4245 8.66093 12.4245 9.99983C12.4245 11.3386 11.3391 12.424 10.0003 12.424C8.66142 12.424 7.57615 11.3386 7.57615 9.99983C7.57615 8.66093 8.66142 7.57566 10.0003 7.57566Z" fill="white"/>
</g>
<defs>
<radialGradient id="paint0_radial_2797_383" cx="0" cy="0" r="1" gradientUnits="userSpaceOnUse" gradientTransform="translate(5.38444 21.3633) rotate(-90) scale(19.5189 18.1591)">
<stop stop-color="#FFDD55"/>
<stop offset="0.1" stop-color="#FFDD55"/>
<stop offset="0.5" stop-color="#FF543E"/>
<stop offset="1" stop-color="#C837AB"/>
</radialGradient>
<radialGradient id="paint1_radial_2797_383" cx="0" cy="0" r="1" gradientUnits="userSpaceOnUse" gradientTransform="translate(-3.14829 1.57042) rotate(78.6776) scale(8.72512 35.9744)">
<stop stop-color="#3771C8"/>
<stop offset="0.128" stop-color="#3771C8"/>
<stop offset="1" stop-color="#6600FF" stop-opacity="0"/>
</radialGradient>
<clipPath id="clip0_2797_383">
<rect width="20" height="19.9994" fill="white"/>
</clipPath>
</defs>
</svg>
