<svg width="20" height="20" viewBox="0 0 20 20" fill="none" xmlns="http://www.w3.org/2000/svg">
<path d="M0 1.46721C0 0.679591 0.662031 0.0402832 1.47812 0.0402832H18.5219C19.3383 0.0402832 20 0.679591 20 1.46721V18.5336C20 19.3214 19.3383 19.9603 18.5219 19.9603H1.47812C0.662109 19.9603 0 19.3215 0 18.5338V1.46698V1.46721Z" fill="#006699"/>
<path d="M6.07782 16.7105V7.74248H3.08501V16.7105H6.07813H6.07782ZM4.58204 6.51826C5.62547 6.51826 6.27508 5.82961 6.27508 4.96901C6.25555 4.08879 5.62547 3.41937 4.60188 3.41937C3.57758 3.41937 2.9086 4.08879 2.9086 4.96893C2.9086 5.82954 3.55797 6.51818 4.56243 6.51818H4.5818L4.58204 6.51826ZM7.73438 16.7105H10.727V11.7029C10.727 11.4352 10.7465 11.1669 10.8256 10.9757C11.0418 10.4399 11.5342 9.88536 12.3612 9.88536C13.4438 9.88536 13.8772 10.7077 13.8772 11.9134V16.7105H16.8697V11.5685C16.8697 8.81404 15.3934 7.53223 13.4245 7.53223C11.8102 7.53223 11.1012 8.43089 10.7073 9.04296H10.7272V7.74279H7.73454C7.7736 8.5841 7.7343 16.7108 7.7343 16.7108L7.73438 16.7105Z" fill="white"/>
</svg>
